<svg aria-hidden="true" style="position: absolute; width: 0; height: 0; overflow: hidden;" version="1.1" xmlns="http://www.w3.org/2000/svg" xmlns:xlink="http://www.w3.org/1999/xlink">
<defs>
<symbol id="icon-arrow-down" viewBox="0 0 32 32">
<path d="M31.33 15.33l-3.232-3.232-9.813 9.813v-21.911h-4.571v21.911l-9.813-9.813-3.232 3.232 15.33 15.33 15.33-15.33z"></path>
</symbol>
<symbol id="icon-arrow-left" viewBox="0 0 32 32">
<path d="M19.902 28.098l-9.813-9.813h21.911v-4.571h-21.911l9.813-9.813-3.232-3.232-15.33 15.33 15.33 15.33 3.232-3.232z"></path>
</symbol>
<symbol id="icon-arrow-right" viewBox="0 0 32 32">
<path d="M12.098 28.098l3.232 3.232 15.33-15.33-15.33-15.33-3.232 3.232 9.813 9.813h-21.911v4.571h21.911l-9.813 9.813z"></path>
</symbol>
<symbol id="icon-minus-8" viewBox="0 0 224 32">
<path d="M0 0h224v32h-224v-32z"></path>
</symbol>
<symbol id="icon-plus" viewBox="0 0 32 32">
<path d="M32 13.714h-13.714v-13.714h-4.571v13.714h-13.714v4.571h13.714v13.714h4.571v-13.714h13.714v-4.571z"></path>
</symbol>
<symbol id="icon-checkmark" viewBox="0 0 40 32">
<path d="M13.333 22.896l-8.781-8.781-3.771 3.771 12.552 12.552 25.885-25.885-3.771-3.771-22.115 22.115z"></path>
</symbol>
<symbol id="icon-x" viewBox="0 0 32 32">
<path d="M27.179 0.918l-11.315 11.312-11.312-11.312-3.771 3.771 11.312 11.312-11.312 11.312 3.771 3.771 11.312-11.312 11.315 11.312 3.771-3.771-11.312-11.312 11.312-11.312-3.771-3.771z"></path>
</symbol>
<symbol id="icon-star" viewBox="0 0 32 32">
<path d="M7.226 19.717l-2.384 10.323c-0.074 0.313-0.052 0.64 0.064 0.94s0.318 0.558 0.582 0.74c0.264 0.183 0.577 0.281 0.899 0.283s0.635-0.093 0.902-0.273l8.712-5.808 8.712 5.808c0.273 0.181 0.594 0.274 0.921 0.267s0.644-0.114 0.908-0.307c0.264-0.193 0.463-0.462 0.57-0.771s0.116-0.644 0.028-0.959l-2.926-10.24 7.258-6.531c0.232-0.209 0.399-0.482 0.477-0.785s0.068-0.622-0.033-0.918-0.285-0.556-0.532-0.749c-0.247-0.192-0.544-0.308-0.856-0.333l-9.122-0.726-3.947-8.738c-0.126-0.281-0.33-0.52-0.589-0.688s-0.56-0.257-0.868-0.257c-0.308 0-0.61 0.089-0.868 0.257s-0.463 0.407-0.589 0.688l-3.947 8.738-9.122 0.725c-0.306 0.024-0.599 0.136-0.844 0.323s-0.43 0.439-0.534 0.728c-0.104 0.289-0.123 0.602-0.055 0.902s0.223 0.573 0.443 0.788l6.742 6.571zM11.79 12.795c0.286-0.023 0.56-0.121 0.794-0.286s0.42-0.39 0.537-0.651l2.878-6.37 2.878 6.37c0.117 0.261 0.303 0.486 0.537 0.651s0.508 0.264 0.794 0.286l6.355 0.504-5.234 4.71c-0.454 0.41-0.635 1.040-0.469 1.629l2.005 7.016-5.978-3.986c-0.262-0.176-0.571-0.27-0.887-0.27s-0.625 0.094-0.887 0.27l-6.246 4.165 1.68-7.274c0.062-0.268 0.053-0.546-0.024-0.81s-0.221-0.503-0.418-0.694l-4.861-4.739 6.544-0.522z"></path>
</symbol>
<symbol id="icon-burger" viewBox="0 0 43 32">
<path d="M0 0h42.667v5.333h-42.667v-5.333zM10.667 13.333h32v5.333h-32v-5.333zM24 26.667h18.667v5.333h-18.667v-5.333z"></path>
</symbol>
<symbol id="icon-mail" viewBox="0 0 40 32">
<path d="M36 0h-32c-2.206 0-4 1.794-4 4v24c0 2.206 1.794 4 4 4h32c2.206 0 4-1.794 4-4v-24c0-2.206-1.794-4-4-4zM36 4v1.022l-16 12.446-16-12.444v-1.024h32zM4 28v-17.912l14.772 11.49c0.35 0.275 0.783 0.425 1.228 0.425s0.878-0.15 1.228-0.425l14.772-11.49 0.004 17.912h-32.004z"></path>
</symbol>
<symbol id="icon-phone" viewBox="0 0 32 32">
<path d="M24.77 17.336c-0.156-0.157-0.342-0.281-0.546-0.365s-0.423-0.128-0.645-0.128c-0.221 0-0.44 0.044-0.645 0.128s-0.39 0.209-0.546 0.365l-2.685 2.685c-1.245-0.371-3.567-1.213-5.039-2.685s-2.314-3.795-2.685-5.039l2.685-2.685c0.157-0.156 0.281-0.342 0.365-0.546s0.128-0.423 0.128-0.645c0-0.221-0.044-0.44-0.128-0.645s-0.209-0.39-0.365-0.546l-6.737-6.737c-0.156-0.157-0.342-0.281-0.546-0.365s-0.423-0.128-0.645-0.128c-0.221 0-0.44 0.044-0.645 0.128s-0.39 0.209-0.546 0.365l-4.568 4.568c-0.64 0.64-1 1.519-0.987 2.417 0.039 2.398 0.674 10.729 7.239 17.294s14.895 7.198 17.295 7.239h0.047c0.889 0 1.73-0.35 2.366-0.987l4.568-4.568c0.157-0.156 0.281-0.342 0.365-0.546s0.128-0.423 0.128-0.645c0-0.221-0.044-0.44-0.128-0.645s-0.209-0.39-0.365-0.546l-6.737-6.739zM24.556 28.64c-2.102-0.035-9.293-0.6-14.944-6.252-5.669-5.669-6.218-12.886-6.252-14.946l3.377-3.377 4.355 4.355-2.178 2.178c-0.198 0.198-0.344 0.442-0.423 0.71s-0.092 0.552-0.035 0.826c0.040 0.194 1.029 4.787 3.825 7.582s7.389 3.784 7.582 3.825c0.274 0.059 0.558 0.048 0.826-0.032s0.512-0.226 0.71-0.425l2.179-2.178 4.355 4.355-3.379 3.377z"></path>
</symbol>
<symbol id="icon-locate" viewBox="0 0 26 32">
<path d="M12.8 19.2c3.53 0 6.4-2.87 6.4-6.4s-2.87-6.4-6.4-6.4c-3.53 0-6.4 2.87-6.4 6.4s2.87 6.4 6.4 6.4zM12.8 9.6c1.765 0 3.2 1.435 3.2 3.2s-1.435 3.2-3.2 3.2c-1.765 0-3.2-1.435-3.2-3.2s1.435-3.2 3.2-3.2z"></path>
<path d="M11.872 31.702c0.271 0.193 0.595 0.297 0.928 0.297s0.657-0.104 0.928-0.297c0.486-0.344 11.918-8.598 11.872-18.902 0-7.058-5.742-12.8-12.8-12.8s-12.8 5.742-12.8 12.792c-0.046 10.312 11.386 18.566 11.872 18.91zM12.8 3.2c5.294 0 9.6 4.306 9.6 9.608 0.034 7.101-7.021 13.477-9.6 15.568-2.578-2.093-9.634-8.47-9.6-15.576 0-5.294 4.306-9.6 9.6-9.6z"></path>
</symbol>
<symbol id="icon-logo" viewBox="0 0 75 32">
<path d="M1.755 16.717c-0.001 0.057-0.001 0.114-0.002 0.171 0.001-0.056 0.001-0.112 0.002-0.168v-0.003z"></path>
<path d="M13.651 8.345c0.243-0.013 0.506-0.027 0.726 0.023 0.124 0.028 0.206 0.073 0.277 0.181 0.046 0.249 0.086 0.495 0.095 0.748 0.020 0.537 0.016 1.078 0.011 1.617-0.002 0.245-0.005 0.49-0.005 0.733v4.649c0 0.153 0.004 0.409 0.010 0.722 0.019 1.095 0.050 2.876-0.049 3.269-0.071 0.281-0.214 0.411-0.458 0.555-0.218 0.028-0.445 0.033-0.67 0.038-0.118 0.003-0.235 0.005-0.351 0.011-1.086 0.055-2.232 0.167-3.229 0.628-0.267 0.123-0.534 0.269-0.769 0.447-0.12 0.092-0.255 0.219-0.398 0.354-0.357 0.338-0.77 0.728-1.159 0.75-0.449 0.025-0.874-0.359-1.266-0.713-0.187-0.168-0.367-0.33-0.537-0.438-0.414-0.262-0.883-0.463-1.347-0.615-0.766-0.251-1.578-0.379-2.382-0.427-0.121-0.007-0.247-0.007-0.372-0.006-0.233 0.001-0.469 0.002-0.689-0.047-0.192-0.043-0.315-0.14-0.459-0.267-0.105-0.251-0.138-0.561-0.151-0.831-0.023-0.483-0.017-0.972-0.011-1.459 0.003-0.216 0.005-0.432 0.005-0.647l0.003-4.112-0.003-3.112c-0-0.136-0.006-0.283-0.012-0.436-0.016-0.413-0.033-0.864 0.056-1.216 0.049-0.194 0.162-0.279 0.324-0.383 1.784-0.116 3.732 0.255 5.299 1.127 0.521 0.29 0.99 0.644 1.464 1.003 0.266-0.199 0.535-0.398 0.81-0.585 1.475-1.008 3.232-1.506 5.012-1.55 0.073-0.002 0.15-0.006 0.228-0.010zM13.445 9.742c-0.216 0.002-0.445-0.012-0.659 0.017-1.464 0.132-3.343 0.668-4.337 1.834-0.042 0.050-0.082 0.101-0.122 0.154l-0.003 9.156c0.163-0.118 0.324-0.24 0.489-0.355 1.368-0.817 3.079-0.957 4.638-1.070 0-3.243 0.043-6.493-0.007-9.736zM1.779 9.743c-0.034 1.355-0.026 2.715-0.019 4.073 0.003 0.557 0.006 1.113 0.006 1.668 0 0.408-0.005 0.82-0.010 1.232v0.003c-0.012 0.912-0.023 1.829 0.023 2.731 1.801 0.155 3.61 0.333 5.11 1.434-0.009-3.039 0.008-6.077 0.050-9.115-1.18-1.245-3.025-1.981-4.727-2.029-0.144-0.003-0.288-0.002-0.432 0.003z"></path>
<path d="M13.651 8.345v0zM14.377 8.368v0zM14.654 8.549l0.214-0.039-0.008-0.043-0.024-0.037-0.182 0.119zM14.749 9.297v0zM14.76 10.915v0zM14.754 16.297h-0.217v0l0.217-0zM14.764 17.019v0zM14.715 20.289v0zM14.257 20.843l0.027 0.215 0.044-0.006 0.039-0.023-0.11-0.187zM13.587 20.881v0zM13.236 20.892l-0.011-0.217h-0l0.011 0.217zM10.007 21.519v0zM9.238 21.966v0zM8.839 22.321v0zM7.681 23.071l0.012 0.217h0l-0.012-0.217zM6.414 22.357v0zM5.877 21.92v0zM4.529 21.304l0.068-0.206h-0l-0.067 0.206zM2.148 20.877l-0.013 0.217h0l0.013-0.217zM1.775 20.871v0zM1.086 20.824l-0.047 0.212 0 0 0.047-0.212zM0.627 20.557l-0.2 0.084 0.019 0.046 0.037 0.033 0.144-0.163zM0.476 19.726v0zM0.464 18.267v0zM0.47 17.62v0zM0.473 13.508l0.217 0v-0l-0.217 0zM0.47 10.396v0zM0.457 9.96v0zM0.514 8.744v0zM0.838 8.361l-0.014-0.217-0.056 0.004-0.047 0.030 0.117 0.183zM6.137 9.488v0zM7.601 10.491l-0.131 0.173 0.13 0.098 0.131-0.097-0.13-0.174zM8.411 9.906v0zM13.423 8.355l0.005 0.217h0l-0.005-0.217zM13.445 9.742l0.217-0.003-0.003-0.216-0.216 0.002 0.002 0.217zM12.786 9.758l0.020 0.216 0.009-0.001-0.029-0.215zM8.45 11.592l-0.165-0.141-0.001 0.001 0.166 0.14zM8.328 11.746l-0.174-0.13-0.044 0.058-0 0.072 0.217 0zM8.325 20.902l-0.217-0-0 0.427 0.345-0.251-0.128-0.176zM8.814 20.547l-0.111-0.186-0.006 0.004-0.006 0.004 0.124 0.178zM13.452 19.478l0.016 0.217 0.202-0.015v-0.202h-0.217zM1.779 9.743l-0.007-0.217-0.205 0.007-0.005 0.205 0.217 0.005zM1.76 13.816v0zM1.766 15.485v0zM1.755 16.717l-0.217-0.003v0.003h0.217zM1.755 16.72l0.217 0.003v-0.003h-0.217zM1.778 19.451l-0.217 0.011 0.010 0.189 0.189 0.016 0.019-0.216zM6.888 20.885l-0.128 0.175 0.347 0.255-0.001-0.43-0.217 0.001zM6.938 11.77l0.217 0.003 0.001-0.088-0.061-0.064-0.158 0.149zM2.211 9.741l0.006-0.217-0.001-0-0.005 0.217zM13.651 8.345l0.012 0.217c0.251-0.013 0.482-0.024 0.667 0.018l0.095-0.424c-0.255-0.057-0.549-0.040-0.785-0.027l0.012 0.217zM14.377 8.368l-0.047 0.212c0.048 0.011 0.073 0.022 0.090 0.032 0.015 0.009 0.032 0.024 0.053 0.056l0.364-0.238c-0.050-0.076-0.109-0.139-0.184-0.186-0.073-0.046-0.151-0.072-0.227-0.089l-0.047 0.212zM14.654 8.549l-0.214 0.039c0.045 0.248 0.083 0.481 0.092 0.717l0.434-0.016c-0.010-0.27-0.053-0.529-0.099-0.779l-0.214 0.039zM14.749 9.297l-0.217 0.008c0.020 0.531 0.015 1.067 0.010 1.607l0.434 0.004c0.005-0.539 0.010-1.085-0.011-1.627l-0.217 0.008zM14.76 10.915l-0.217-0.002c-0.002 0.244-0.005 0.49-0.005 0.736h0.434c0-0.242 0.003-0.486 0.005-0.731l-0.217-0.002zM14.754 11.648h-0.217v4.649h0.434v-4.649h-0.217zM14.754 16.297l-0.217 0c0 0.155 0.004 0.413 0.009 0.726l0.434-0.008c-0.005-0.313-0.009-0.568-0.009-0.719l-0.217 0zM14.764 17.019l-0.217 0.004c0.009 0.548 0.022 1.265 0.020 1.893-0.001 0.314-0.006 0.605-0.016 0.84-0.011 0.242-0.027 0.406-0.046 0.479l0.421 0.106c0.031-0.123 0.048-0.329 0.058-0.566 0.011-0.244 0.016-0.541 0.017-0.858 0.002-0.634-0.010-1.355-0.020-1.902l-0.217 0.004zM14.715 20.289l-0.211-0.053c-0.028 0.112-0.067 0.182-0.117 0.238-0.053 0.060-0.126 0.114-0.241 0.182l0.221 0.374c0.128-0.076 0.249-0.158 0.347-0.269 0.101-0.115 0.169-0.25 0.212-0.42l-0.211-0.053zM14.257 20.843l-0.027-0.215c-0.205 0.026-0.421 0.031-0.648 0.036l0.010 0.434c0.223-0.005 0.462-0.011 0.693-0.040l-0.027-0.215zM13.587 20.881l-0.005-0.217c-0.116 0.003-0.238 0.005-0.357 0.011l0.011 0.217 0.011 0.217c0.111-0.006 0.225-0.008 0.345-0.010l-0.005-0.217zM13.236 20.892l-0.011-0.217c-1.087 0.055-2.271 0.167-3.309 0.647l0.182 0.394c0.956-0.442 2.065-0.553 3.149-0.608l-0.011-0.217zM10.007 21.519l-0.091-0.197c-0.275 0.127-0.558 0.28-0.809 0.471l0.263 0.346c0.217-0.165 0.47-0.303 0.729-0.423l-0.091-0.197zM9.238 21.966l-0.132-0.173c-0.131 0.1-0.275 0.236-0.416 0.369l0.299 0.315c0.146-0.138 0.272-0.256 0.381-0.339l-0.131-0.173zM8.839 22.321l-0.149-0.158c-0.181 0.171-0.363 0.343-0.546 0.476-0.186 0.135-0.345 0.208-0.476 0.215l0.012 0.217 0.012 0.217c0.258-0.014 0.5-0.147 0.707-0.297 0.21-0.152 0.413-0.345 0.589-0.512l-0.149-0.158zM7.681 23.071l-0.012-0.217c-0.158 0.009-0.33-0.054-0.524-0.18s-0.386-0.298-0.585-0.478l-0.291 0.323c0.193 0.174 0.411 0.371 0.639 0.52s0.494 0.265 0.784 0.249l-0.012-0.217zM6.414 22.357l0.146-0.161c-0.183-0.165-0.377-0.34-0.567-0.46l-0.232 0.367c0.152 0.096 0.317 0.243 0.508 0.415l0.146-0.161zM5.877 21.92l0.116-0.184c-0.433-0.273-0.919-0.482-1.396-0.638l-0.135 0.413c0.452 0.148 0.904 0.343 1.299 0.593l0.116-0.184zM4.529 21.304l0.067-0.206c-0.788-0.258-1.619-0.389-2.437-0.438l-0.013 0.217-0.013 0.217c0.79 0.047 1.583 0.173 2.327 0.417l0.067-0.206zM2.148 20.877l0.013-0.217c-0.13-0.008-0.262-0.007-0.386-0.006l0.001 0.217 0.001 0.217c0.128-0 0.246-0.001 0.359 0.006l0.013-0.217zM1.775 20.871l-0.001-0.217c-0.238 0.001-0.449 0.001-0.642-0.042l-0.094 0.424c0.248 0.055 0.509 0.053 0.737 0.052l-0.001-0.217zM1.086 20.824l0.047-0.212c-0.134-0.030-0.223-0.095-0.362-0.218l-0.288 0.325c0.149 0.132 0.307 0.262 0.556 0.317l0.047-0.212zM0.627 20.557l0.2-0.084c-0.090-0.213-0.121-0.49-0.134-0.757l-0.434 0.021c0.013 0.273 0.046 0.616 0.168 0.905l0.2-0.084zM0.476 19.726l0.217-0.010c-0.023-0.476-0.017-0.958-0.011-1.446l-0.434-0.005c-0.006 0.486-0.012 0.982 0.012 1.472l0.217-0.011zM0.464 18.267l0.217 0.003c0.003-0.216 0.005-0.433 0.005-0.649l-0.434-0c-0 0.213-0.002 0.428-0.005 0.644l0.217 0.003zM0.47 17.62l0.217 0 0.003-4.112-0.434-0-0.003 4.112 0.217 0zM0.473 13.508l0.217-0-0.003-3.112-0.434 0 0.003 3.112 0.217-0zM0.47 10.396l0.217-0c-0-0.141-0.006-0.293-0.012-0.444l-0.434 0.017c0.006 0.154 0.012 0.297 0.012 0.427l0.217-0zM0.457 9.96l0.217-0.008c-0.016-0.423-0.031-0.838 0.050-1.154l-0.421-0.107c-0.099 0.389-0.079 0.875-0.063 1.278l0.217-0.008zM0.514 8.744l0.21 0.054c0.028-0.109 0.077-0.156 0.23-0.253l-0.234-0.366c-0.171 0.109-0.346 0.234-0.417 0.512l0.21 0.054zM0.838 8.361l0.014 0.217c1.748-0.113 3.654 0.251 5.18 1.1l0.211-0.38c-1.608-0.895-3.599-1.272-5.419-1.154l0.014 0.217zM6.137 9.488l-0.106 0.19c0.505 0.281 0.962 0.626 1.438 0.986l0.262-0.347c-0.472-0.357-0.953-0.721-1.489-1.019l-0.106 0.19zM7.601 10.491l0.13 0.174c0.266-0.199 0.532-0.395 0.803-0.58l-0.245-0.359c-0.279 0.19-0.551 0.392-0.817 0.59l0.13 0.174zM8.411 9.906l0.123 0.179c1.437-0.982 3.151-1.469 4.895-1.512l-0.005-0.217-0.005-0.217c-1.816 0.045-3.615 0.553-5.129 1.588l0.123 0.179zM13.423 8.355l0.005 0.217c0.076-0.002 0.157-0.007 0.234-0.011l-0.023-0.434c-0.080 0.004-0.153 0.008-0.222 0.010l0.005 0.217zM13.445 9.742l-0.002-0.217c-0.195 0.002-0.454-0.012-0.686 0.018l0.029 0.215 0.029 0.215c0.196-0.026 0.395-0.013 0.632-0.015l-0.002-0.217zM12.786 9.758l-0.020-0.216c-0.748 0.068-1.604 0.238-2.402 0.543-0.797 0.304-1.551 0.746-2.080 1.367l0.331 0.282c0.465-0.546 1.147-0.954 1.904-1.243 0.755-0.288 1.571-0.451 2.287-0.516l-0.020-0.216zM8.45 11.592l-0.166-0.14c-0.046 0.054-0.089 0.109-0.129 0.163l0.347 0.261c0.038-0.050 0.075-0.098 0.114-0.144l-0.166-0.14zM8.328 11.746l-0.217-0-0.003 9.156 0.434 0 0.003-9.156-0.217-0zM8.325 20.902l0.128 0.176c0.168-0.122 0.322-0.239 0.485-0.352l-0.248-0.357c-0.167 0.116-0.335 0.243-0.493 0.358l0.128 0.176zM8.814 20.547l0.111 0.186c1.316-0.786 2.974-0.927 4.542-1.039l-0.016-0.217-0.016-0.217c-1.55 0.111-3.314 0.252-4.734 1.1l0.111 0.186zM13.452 19.478h0.217c0-3.239 0.043-6.495-0.007-9.739l-0.434 0.007c0.050 3.241 0.007 6.485 0.007 9.733h0.217zM1.779 9.743l-0.217-0.005c-0.034 1.359-0.026 2.722-0.019 4.079l0.434-0.002c-0.007-1.358-0.014-2.715 0.019-4.066l-0.217-0.005zM1.76 13.816l-0.217 0.001c0.003 0.557 0.006 1.112 0.006 1.667l0.434-0c-0-0.556-0.003-1.113-0.006-1.669l-0.217 0.001zM1.766 15.485h-0.217c0 0.407-0.005 0.817-0.010 1.229l0.434 0.006c0.005-0.412 0.011-0.825 0.010-1.235l-0.217 0zM1.755 16.717h-0.217v0.003h0.434v-0.003h-0.217zM1.755 16.72l-0.217-0.003c-0.012 0.911-0.023 1.835 0.023 2.745l0.434-0.022c-0.045-0.894-0.034-1.804-0.022-2.717l-0.217-0.003zM1.778 19.451l-0.019 0.216c1.81 0.156 3.556 0.333 5 1.393l0.257-0.35c-1.557-1.142-3.427-1.321-5.22-1.475l-0.019 0.216zM6.888 20.885l0.217-0.001c-0.009-3.037 0.008-6.075 0.050-9.112l-0.434-0.006c-0.043 3.040-0.059 6.079-0.050 9.119l0.217-0.001zM6.938 11.77l0.158-0.149c-1.224-1.292-3.127-2.047-4.879-2.096l-0.006 0.217-0.006 0.217c1.652 0.046 3.44 0.762 4.576 1.961l0.158-0.149zM2.211 9.741l0.005-0.217c-0.148-0.003-0.296-0.002-0.444 0.003l0.007 0.217 0.007 0.217c0.14-0.005 0.281-0.005 0.421-0.003l0.005-0.217z"></path>
<path d="M20.32 9.345c1.74-0.030 4.67-0.081 5.635 0.288 0.737 0.282 1.364 0.838 1.685 1.564 0.316 0.716 0.339 1.663 0.052 2.392-0.306 0.778-0.869 1.107-1.595 1.421 0.056 0.020 0.113 0.040 0.17 0.060 0.156 0.054 0.313 0.108 0.459 0.181 0.671 0.337 1.184 0.924 1.429 1.634 0.295 0.871 0.182 1.847-0.218 2.662-0.298 0.514-0.716 0.911-1.233 1.201-0.455 0.255-0.905 0.356-1.419 0.424-0.781 0.104-5.312 0.172-5.881-0.022-0.077-0.026-0.153-0.055-0.188-0.131-0.084-0.182-0.095-0.46-0.104-0.674l-0.003-0.059c-0.055-1.218-0.037-2.452-0.019-3.681 0.008-0.547 0.015-1.093 0.017-1.635 0.001-0.523-0.005-1.050-0.012-1.577-0.013-1.028-0.026-2.061 0.021-3.078 0.010-0.22 0.029-0.466 0.108-0.674 0.061-0.158 0.138-0.213 0.287-0.283 0.218-0.002 0.495-0.007 0.81-0.012zM24.67 15.956c-0.634-0.151-2.636-0.046-3.398-0.046l0.001 3.476c0.895 0.002 2.842 0.115 3.609-0.082 0.283-0.073 0.508-0.186 0.723-0.384 0.345-0.407 0.524-0.817 0.472-1.362-0.046-0.485-0.253-0.897-0.63-1.208-0.225-0.188-0.491-0.323-0.776-0.394zM21.904 11.108c-0.241 0.008-0.458 0.014-0.633 0.015l0.002 3.094c0.203 0.001 0.451 0.007 0.72 0.014 0.892 0.023 2.031 0.052 2.625-0.1 0.277-0.071 0.506-0.183 0.727-0.363 0.291-0.352 0.449-0.754 0.411-1.216-0.033-0.407-0.227-0.805-0.551-1.056-0.611-0.474-2.213-0.422-3.302-0.387z"></path>
<path d="M38.271 16.265c-0.335-2.511-2.642-4.275-5.153-3.94-2.509 0.335-4.271 2.641-3.937 5.15s2.638 4.273 5.148 3.941c2.511-0.333 4.277-2.639 3.943-5.15zM33.411 14.267c0.51-0.025 0.959-0.017 1.411 0.259 0.507 0.309 0.823 0.838 0.96 1.405 0.195 0.804 0.149 1.912-0.303 2.628-0.324 0.513-0.776 0.739-1.348 0.865-0.549 0.055-1.093 0.003-1.564-0.312-0.496-0.333-0.785-0.876-0.897-1.451-0.159-0.817-0.109-1.878 0.384-2.577 0.339-0.48 0.79-0.716 1.356-0.817z"></path>
<path d="M48.111 16.237c-0.347-2.511-2.666-4.262-5.176-3.908-2.5 0.352-4.242 2.661-3.897 5.161s2.649 4.25 5.15 3.911c2.511-0.34 4.269-2.654 3.923-5.165zM43.216 14.268c0.496-0.041 0.975-0.025 1.421 0.224 0.529 0.296 0.852 0.817 1.003 1.391 0.216 0.825 0.174 1.89-0.279 2.634-0.32 0.527-0.777 0.773-1.361 0.904-0.547 0.071-1.085 0.010-1.555-0.299-0.502-0.33-0.793-0.867-0.915-1.443-0.172-0.815-0.116-1.864 0.359-2.572 0.322-0.481 0.771-0.726 1.326-0.84z"></path>
<path d="M49.939 8.974c0.034-0.003 0.069-0.006 0.103-0.007 0.341-0.012 1.099-0.078 1.33 0.234 0.099 0.133 0.113 0.41 0.125 0.574 0.052 0.692 0.010 1.415 0.010 2.11l0.001 4.091c0.484-0.575 1.041-1.102 1.551-1.655 0.504-0.547 0.988-1.175 1.547-1.662 0.133-0.116 0.234-0.177 0.406-0.224 0.357-0.097 1.649-0.169 1.921 0.025 0.069 0.049 0.129 0.145 0.123 0.233-0.024 0.389-2.597 2.926-3.045 3.37 0.825 1.199 1.657 2.393 2.496 3.582 0.209 0.303 0.803 0.954 0.726 1.33-0.017 0.082-0.081 0.153-0.153 0.193-0.386 0.212-1.868 0.073-2.33-0.078-0.331-0.332-0.6-0.813-0.866-1.199l-1.61-2.347-0.769 0.669c-0.003 0.616 0.181 2.427-0.215 2.839-0.177 0.185-0.409 0.199-0.65 0.202-0.368 0.004-1.081 0.065-1.35-0.198-0.069-0.709-0.046-1.427-0.047-2.138l-0.001-3.039 0-4.164c0-0.74-0.026-1.491 0.008-2.23 0.005-0.099 0.007-0.185 0.066-0.27 0.142-0.205 0.398-0.209 0.623-0.239z"></path>
<path d="M65.59 12.355c0.486-0.011 1.453-0.118 1.89 0.063 0.164 0.068 0.238 0.235 0.311 0.388 0.311 0.648 0.515 1.396 0.765 2.073 0.436 1.178 0.905 2.344 1.347 3.519 0.257-0.663 2.030-5.606 2.321-5.853 0.142-0.121 0.413-0.147 0.59-0.152 0.374-0.011 1.073-0.094 1.356 0.168 0.072 0.168 0.062 0.261 0.021 0.441-0.145 0.63-0.454 1.286-0.68 1.893l-1.455 3.91-0.983 2.666c-0.198 0.538-0.372 1.113-0.628 1.625-0.143 0.285-0.317 0.552-0.535 0.785-0.523 0.56-1.206 0.801-1.959 0.827-0.323 0.011-0.876 0.071-1.125-0.159-0.159-0.322-0.172-1.071-0.070-1.418 0.1-0.337 0.839-0.273 1.137-0.441 0.48-0.27 0.61-0.801 0.734-1.295-0.385-1.165-3.285-8.287-3.257-8.689 0.012-0.175 0.095-0.25 0.222-0.351z"></path>
<path d="M60.825 12.321c0.243-0.037 0.51-0.027 0.758-0.024 0.983 0.010 2.083 0.217 2.791 0.957 0.325 0.34 0.563 0.854 0.527 1.333-0.006 0.082-0.029 0.199-0.098 0.248-0.353 0.25-1.317 0.201-1.737 0.144-0.372-0.050-0.344-0.299-0.573-0.572-0.253-0.3-0.623-0.447-1.007-0.475-0.428-0.031-0.97 0.108-1.289 0.409-0.141 0.133-0.289 0.475-0.266 0.666 0.099 0.835 2.452 0.943 3.129 1.113 0.574 0.145 1.165 0.36 1.624 0.746 0.435 0.367 0.632 0.866 0.676 1.425 0.054 0.689-0.146 1.348-0.603 1.869-0.794 0.906-1.951 1.172-3.102 1.256-0.885 0.030-1.837-0.091-2.633-0.5-0.577-0.297-1.099-0.76-1.291-1.4-0.079-0.261-0.132-0.567 0.007-0.815 0.402-0.315 1.501-0.192 1.99-0.174 0.165 0.251 0.265 0.545 0.49 0.752 0.379 0.35 0.939 0.455 1.44 0.43 0.41-0.020 0.846-0.137 1.12-0.462 0.152-0.179 0.239-0.41 0.217-0.646-0.091-0.947-2.424-0.944-3.145-1.11-0.521-0.12-1.053-0.331-1.475-0.666-0.445-0.353-0.729-0.828-0.783-1.397-0.060-0.695 0.154-1.385 0.597-1.924 0.669-0.81 1.63-1.085 2.637-1.184z"></path>
</symbol>
<symbol id="icon-up" viewBox="0 0 48 32">
<path d="M1.172 25.172l5.656 5.656 17.172-17.172 17.172 17.172 5.656-5.656-22.828-22.828-22.828 22.828z"></path>
</symbol>
<symbol id="icon-down" viewBox="0 0 48 32">
<path d="M41.172 1.172l-17.172 17.172-17.172-17.172-5.656 5.656 22.828 22.828 22.828-22.828-5.656-5.656z"></path>
</symbol>
<symbol id="icon-left" viewBox="0 0 21 32">
<path d="M16.781 0.781l-15.219 15.219 15.219 15.219 3.771-3.771-11.448-11.448 11.448-11.448-3.771-3.771z"></path>
</symbol>
<symbol id="icon-right" viewBox="0 0 21 32">
<path d="M4.552 31.866l15.219-15.219-15.219-15.219-3.771 3.771 11.448 11.448-11.448 11.448 3.771 3.771z"></path>
</symbol>
<symbol id="icon-arrow-up" viewBox="0 0 32 32">
<path d="M13.714 10.089v21.911h4.571v-21.911l9.813 9.813 3.232-3.232-15.33-15.33-15.33 15.33 3.232 3.232 9.813-9.813z"></path>
</symbol>
<symbol id="icon-dot" viewBox="0 0 32 32">
<path d="M30.222 17.208c0 7.855-6.367 14.222-14.222 14.222s-14.222-6.367-14.222-14.222c0-7.855 6.367-14.222 14.222-14.222s14.222 6.367 14.222 14.222z"></path>
</symbol>
</defs>
</svg>
