<svg aria-hidden="true" style="position: absolute; width: 0; height: 0; overflow: hidden;" version="1.1" xmlns="http://www.w3.org/2000/svg" xmlns:xlink="http://www.w3.org/1999/xlink">
<defs>
<symbol id="icon-arrow-down" viewBox="0 0 32 32">
<path d="M31.33 15.33l-3.232-3.232-9.813 9.813v-21.911h-4.571v21.911l-9.813-9.813-3.232 3.232 15.33 15.33 15.33-15.33z"></path>
</symbol>
<symbol id="icon-arrow-left" viewBox="0 0 32 32">
<path d="M19.902 28.098l-9.813-9.813h21.911v-4.571h-21.911l9.813-9.813-3.232-3.232-15.33 15.33 15.33 15.33 3.232-3.232z"></path>
</symbol>
<symbol id="icon-arrow-right" viewBox="0 0 32 32">
<path d="M12.098 28.098l3.232 3.232 15.33-15.33-15.33-15.33-3.232 3.232 9.813 9.813h-21.911v4.571h21.911l-9.813 9.813z"></path>
</symbol>
<symbol id="icon-minus-8" viewBox="0 0 224 32">
<path d="M0 0h224v32h-224v-32z"></path>
</symbol>
<symbol id="icon-plus" viewBox="0 0 32 32">
<path d="M32 13.714h-13.714v-13.714h-4.571v13.714h-13.714v4.571h13.714v13.714h4.571v-13.714h13.714v-4.571z"></path>
</symbol>
<symbol id="icon-checkmark" viewBox="0 0 40 32">
<path d="M13.333 22.896l-8.781-8.781-3.771 3.771 12.552 12.552 25.885-25.885-3.771-3.771-22.115 22.115z"></path>
</symbol>
<symbol id="icon-x" viewBox="0 0 32 32">
<path d="M27.179 0.918l-11.315 11.312-11.312-11.312-3.771 3.771 11.312 11.312-11.312 11.312 3.771 3.771 11.312-11.312 11.315 11.312 3.771-3.771-11.312-11.312 11.312-11.312-3.771-3.771z"></path>
</symbol>
<symbol id="icon-star" viewBox="0 0 32 32">
<path d="M7.226 19.717l-2.384 10.323c-0.074 0.313-0.052 0.64 0.064 0.94s0.318 0.558 0.582 0.74c0.264 0.183 0.577 0.281 0.899 0.283s0.635-0.093 0.902-0.273l8.712-5.808 8.712 5.808c0.273 0.181 0.594 0.274 0.921 0.267s0.644-0.114 0.908-0.307c0.264-0.193 0.463-0.462 0.57-0.771s0.116-0.644 0.028-0.959l-2.926-10.24 7.258-6.531c0.232-0.209 0.399-0.482 0.477-0.785s0.068-0.622-0.033-0.918-0.285-0.556-0.532-0.749c-0.247-0.192-0.544-0.308-0.856-0.333l-9.122-0.726-3.947-8.738c-0.126-0.281-0.33-0.52-0.589-0.688s-0.56-0.257-0.868-0.257c-0.308 0-0.61 0.089-0.868 0.257s-0.463 0.407-0.589 0.688l-3.947 8.738-9.122 0.725c-0.306 0.024-0.599 0.136-0.844 0.323s-0.43 0.439-0.534 0.728c-0.104 0.289-0.123 0.602-0.055 0.902s0.223 0.573 0.443 0.788l6.742 6.571zM11.79 12.795c0.286-0.023 0.56-0.121 0.794-0.286s0.42-0.39 0.537-0.651l2.878-6.37 2.878 6.37c0.117 0.261 0.303 0.486 0.537 0.651s0.508 0.264 0.794 0.286l6.355 0.504-5.234 4.71c-0.454 0.41-0.635 1.040-0.469 1.629l2.005 7.016-5.978-3.986c-0.262-0.176-0.571-0.27-0.887-0.27s-0.625 0.094-0.887 0.27l-6.246 4.165 1.68-7.274c0.062-0.268 0.053-0.546-0.024-0.81s-0.221-0.503-0.418-0.694l-4.861-4.739 6.544-0.522z"></path>
</symbol>
<symbol id="icon-burger" viewBox="0 0 43 32">
<path d="M0 0h42.667v5.333h-42.667v-5.333zM10.667 13.333h32v5.333h-32v-5.333zM24 26.667h18.667v5.333h-18.667v-5.333z"></path>
</symbol>
<symbol id="icon-mail" viewBox="0 0 40 32">
<path d="M36 0h-32c-2.206 0-4 1.794-4 4v24c0 2.206 1.794 4 4 4h32c2.206 0 4-1.794 4-4v-24c0-2.206-1.794-4-4-4zM36 4v1.022l-16 12.446-16-12.444v-1.024h32zM4 28v-17.912l14.772 11.49c0.35 0.275 0.783 0.425 1.228 0.425s0.878-0.15 1.228-0.425l14.772-11.49 0.004 17.912h-32.004z"></path>
</symbol>
<symbol id="icon-phone" viewBox="0 0 32 32">
<path d="M24.77 17.336c-0.156-0.157-0.342-0.281-0.546-0.365s-0.423-0.128-0.645-0.128c-0.221 0-0.44 0.044-0.645 0.128s-0.39 0.209-0.546 0.365l-2.685 2.685c-1.245-0.371-3.567-1.213-5.039-2.685s-2.314-3.795-2.685-5.039l2.685-2.685c0.157-0.156 0.281-0.342 0.365-0.546s0.128-0.423 0.128-0.645c0-0.221-0.044-0.44-0.128-0.645s-0.209-0.39-0.365-0.546l-6.737-6.737c-0.156-0.157-0.342-0.281-0.546-0.365s-0.423-0.128-0.645-0.128c-0.221 0-0.44 0.044-0.645 0.128s-0.39 0.209-0.546 0.365l-4.568 4.568c-0.64 0.64-1 1.519-0.987 2.417 0.039 2.398 0.674 10.729 7.239 17.294s14.895 7.198 17.295 7.239h0.047c0.889 0 1.73-0.35 2.366-0.987l4.568-4.568c0.157-0.156 0.281-0.342 0.365-0.546s0.128-0.423 0.128-0.645c0-0.221-0.044-0.44-0.128-0.645s-0.209-0.39-0.365-0.546l-6.737-6.739zM24.556 28.64c-2.102-0.035-9.293-0.6-14.944-6.252-5.669-5.669-6.218-12.886-6.252-14.946l3.377-3.377 4.355 4.355-2.178 2.178c-0.198 0.198-0.344 0.442-0.423 0.71s-0.092 0.552-0.035 0.826c0.040 0.194 1.029 4.787 3.825 7.582s7.389 3.784 7.582 3.825c0.274 0.059 0.558 0.048 0.826-0.032s0.512-0.226 0.71-0.425l2.179-2.178 4.355 4.355-3.379 3.377z"></path>
</symbol>
<symbol id="icon-locate" viewBox="0 0 26 32">
<path d="M12.8 19.2c3.53 0 6.4-2.87 6.4-6.4s-2.87-6.4-6.4-6.4c-3.53 0-6.4 2.87-6.4 6.4s2.87 6.4 6.4 6.4zM12.8 9.6c1.765 0 3.2 1.435 3.2 3.2s-1.435 3.2-3.2 3.2c-1.765 0-3.2-1.435-3.2-3.2s1.435-3.2 3.2-3.2z"></path>
<path d="M11.872 31.702c0.271 0.193 0.595 0.297 0.928 0.297s0.657-0.104 0.928-0.297c0.486-0.344 11.918-8.598 11.872-18.902 0-7.058-5.742-12.8-12.8-12.8s-12.8 5.742-12.8 12.792c-0.046 10.312 11.386 18.566 11.872 18.91zM12.8 3.2c5.294 0 9.6 4.306 9.6 9.608 0.034 7.101-7.021 13.477-9.6 15.568-2.578-2.093-9.634-8.47-9.6-15.576 0-5.294 4.306-9.6 9.6-9.6z"></path>
</symbol>
<symbol id="icon-logo" viewBox="0 0 122 32">
<path fill="#fefefd" style="fill: var(--color1, #fefefd)" d="M2.871 17.173c-0.001 0.093-0.002 0.187-0.004 0.28 0.001-0.092 0.002-0.183 0.004-0.275v-0.005z"></path>
<path fill="#010101" style="fill: var(--color2, #010101)" d="M22.338 3.474c0.398-0.021 0.828-0.043 1.188 0.037 0.203 0.045 0.337 0.119 0.453 0.297 0.075 0.407 0.141 0.81 0.156 1.224 0.033 0.878 0.025 1.763 0.017 2.646-0.004 0.4-0.009 0.801-0.009 1.2v7.608c0 0.25 0.007 0.67 0.016 1.182 0.031 1.792 0.082 4.707-0.080 5.35-0.116 0.46-0.351 0.672-0.75 0.908-0.356 0.045-0.728 0.054-1.097 0.062-0.193 0.004-0.385 0.008-0.574 0.017-1.776 0.090-3.652 0.273-5.284 1.027-0.437 0.202-0.875 0.439-1.258 0.732-0.197 0.15-0.418 0.358-0.652 0.58-0.584 0.553-1.259 1.192-1.896 1.227-0.734 0.040-1.43-0.588-2.072-1.168-0.306-0.276-0.6-0.54-0.879-0.716-0.678-0.428-1.444-0.758-2.205-1.007-1.254-0.41-2.582-0.621-3.898-0.699-0.199-0.012-0.404-0.011-0.609-0.010-0.382 0.001-0.768 0.003-1.128-0.077-0.313-0.070-0.516-0.229-0.751-0.438-0.173-0.41-0.226-0.917-0.247-1.359-0.038-0.791-0.028-1.591-0.018-2.388 0.004-0.353 0.008-0.707 0.009-1.058l0.006-6.729-0.006-5.092c-0-0.222-0.010-0.463-0.020-0.713-0.026-0.676-0.055-1.413 0.092-1.99 0.081-0.317 0.264-0.457 0.53-0.626 2.919-0.189 6.107 0.417 8.672 1.844 0.852 0.474 1.619 1.054 2.395 1.641 0.436-0.325 0.876-0.65 1.325-0.957 2.414-1.65 5.289-2.464 8.202-2.537 0.119-0.003 0.245-0.010 0.374-0.017zM22.001 5.759c-0.354 0.003-0.728-0.019-1.078 0.027-2.396 0.217-5.47 1.093-7.097 3.001-0.069 0.082-0.135 0.166-0.199 0.251l-0.004 14.983c0.266-0.193 0.53-0.393 0.8-0.581 2.238-1.337 5.038-1.567 7.59-1.75 0-5.307 0.071-10.626-0.011-15.932zM2.91 5.762c-0.055 2.217-0.043 4.443-0.031 6.665 0.005 0.911 0.010 1.821 0.010 2.73 0 0.668-0.009 1.341-0.017 2.016v0.006c-0.019 1.492-0.037 2.993 0.037 4.469 2.948 0.254 5.907 0.545 8.362 2.347-0.015-4.973 0.013-9.945 0.082-14.916-1.93-2.038-4.951-3.241-7.736-3.32-0.236-0.005-0.472-0.003-0.707 0.004z"></path>
<path fill="#010101" style="fill: var(--color2, #010101)" d="M22.338 3.474v0zM23.526 3.511v0zM23.979 3.807l0.35-0.064-0.013-0.070-0.039-0.060-0.298 0.194zM24.135 5.032v0zM24.152 7.678v0zM24.143 16.486h-0.355v0l0.355-0zM24.159 17.668v0zM24.080 23.018v0zM23.329 23.925l0.045 0.353 0.073-0.009 0.063-0.037-0.18-0.306zM22.233 23.988v0zM21.659 24.005l-0.018-0.355h-0l0.018 0.355zM16.375 25.032v0zM15.117 25.763v0zM14.464 26.343v0zM12.568 27.57l0.020 0.355h0l-0.020-0.355zM10.496 26.403v0zM9.616 25.687v0zM7.412 24.68l0.111-0.338h-0l-0.11 0.338zM3.514 23.981l-0.021 0.355h0l0.021-0.355zM2.905 23.971v0zM1.777 23.894l-0.077 0.347 0.001 0 0.077-0.347zM1.026 23.457l-0.328 0.138 0.031 0.075 0.061 0.054 0.236-0.266zM0.778 22.097v0zM0.76 19.709v0zM0.768 18.651v0zM0.774 11.922l0.355 0v-0.001l-0.355 0zM0.768 6.83v0zM0.749 6.117v0zM0.841 4.127v0zM1.371 3.501l-0.023-0.355-0.091 0.006-0.077 0.049 0.191 0.3zM10.043 5.344v0zM12.437 6.985l-0.214 0.284 0.213 0.161 0.214-0.16-0.212-0.285zM13.763 6.028v0zM21.965 3.491l0.009 0.355h0l-0.009-0.355zM22.001 5.759l0.355-0.005-0.006-0.353-0.353 0.003 0.003 0.355zM20.923 5.786l0.032 0.354 0.015-0.002-0.047-0.352zM13.827 8.788l-0.27-0.231-0.001 0.001 0.271 0.229zM13.628 9.039l-0.284-0.213-0.071 0.095-0 0.119 0.355 0zM13.624 24.022l-0.355-0-0 0.698 0.565-0.41-0.209-0.287zM14.423 23.441l-0.182-0.305-0.010 0.006-0.010 0.007 0.203 0.292zM22.013 21.691l0.025 0.355 0.33-0.024v-0.331h-0.355zM2.91 5.762l-0.012-0.355-0.335 0.011-0.008 0.335 0.355 0.009zM2.879 12.427v0zM2.889 15.157v0zM2.872 17.172l-0.355-0.005v0.005h0.355zM2.872 17.178l0.355 0.005v-0.005h-0.355zM2.909 21.647l-0.355 0.018 0.016 0.31 0.309 0.027 0.030-0.354zM11.271 23.994l-0.21 0.287 0.568 0.417-0.002-0.704-0.355 0.001zM11.354 9.077l0.355 0.005 0.002-0.145-0.099-0.105-0.258 0.244zM3.618 5.758l0.010-0.355-0.002-0-0.008 0.355zM22.338 3.474l0.019 0.355c0.411-0.022 0.788-0.039 1.091 0.029l0.155-0.694c-0.417-0.093-0.898-0.065-1.284-0.045l0.019 0.355zM23.526 3.511l-0.077 0.347c0.078 0.017 0.12 0.035 0.147 0.052 0.024 0.015 0.052 0.039 0.086 0.092l0.595-0.389c-0.081-0.125-0.179-0.227-0.302-0.304-0.12-0.076-0.247-0.118-0.372-0.145l-0.077 0.347zM23.979 3.807l-0.35 0.064c0.074 0.405 0.136 0.787 0.151 1.174l0.71-0.026c-0.016-0.442-0.087-0.866-0.162-1.275l-0.35 0.064zM24.135 5.032l-0.355 0.013c0.032 0.869 0.025 1.746 0.017 2.63l0.711 0.007c0.008-0.882 0.016-1.775-0.017-2.663l-0.355 0.013zM24.152 7.678l-0.355-0.003c-0.004 0.399-0.008 0.803-0.008 1.204h0.711c0-0.397 0.005-0.795 0.008-1.197l-0.355-0.003zM24.143 8.878h-0.355v7.608h0.711v-7.608h-0.355zM24.143 16.486l-0.355 0c0 0.253 0.007 0.677 0.016 1.188l0.711-0.012c-0.009-0.513-0.015-0.93-0.016-1.176l-0.355 0zM24.159 17.668l-0.355 0.006c0.016 0.897 0.036 2.070 0.032 3.098-0.002 0.514-0.010 0.99-0.027 1.374-0.018 0.396-0.044 0.664-0.074 0.784l0.689 0.173c0.050-0.201 0.078-0.539 0.095-0.926 0.018-0.399 0.026-0.885 0.027-1.403 0.004-1.037-0.017-2.218-0.032-3.113l-0.355 0.006zM24.080 23.018l-0.345-0.087c-0.046 0.183-0.11 0.298-0.191 0.39-0.086 0.098-0.206 0.187-0.395 0.298l0.361 0.612c0.21-0.124 0.407-0.258 0.568-0.441 0.166-0.188 0.277-0.41 0.347-0.687l-0.345-0.087zM23.329 23.925l-0.045-0.353c-0.335 0.042-0.689 0.052-1.060 0.060l0.016 0.711c0.366-0.008 0.756-0.017 1.134-0.065l-0.045-0.353zM22.233 23.988l-0.008-0.355c-0.19 0.004-0.389 0.008-0.584 0.017l0.018 0.355 0.018 0.355c0.182-0.009 0.368-0.012 0.564-0.017l-0.008-0.355zM21.659 24.005l-0.018-0.355c-1.779 0.090-3.716 0.274-5.415 1.059l0.298 0.645c1.564-0.723 3.379-0.904 5.153-0.995l-0.018-0.355zM16.375 25.032l-0.149-0.323c-0.449 0.208-0.913 0.458-1.325 0.771l0.43 0.566c0.356-0.271 0.768-0.496 1.192-0.692l-0.149-0.323zM15.117 25.763l-0.215-0.283c-0.215 0.164-0.451 0.386-0.681 0.604l0.489 0.516c0.238-0.225 0.444-0.419 0.623-0.555l-0.215-0.283zM14.464 26.343l-0.244-0.258c-0.296 0.28-0.594 0.561-0.893 0.778-0.305 0.221-0.564 0.34-0.779 0.352l0.020 0.355 0.020 0.355c0.422-0.024 0.819-0.241 1.157-0.487 0.344-0.249 0.675-0.564 0.964-0.837l-0.244-0.258zM12.568 27.57l-0.020-0.355c-0.259 0.014-0.54-0.088-0.858-0.295s-0.631-0.488-0.957-0.782l-0.476 0.528c0.316 0.286 0.672 0.608 1.046 0.851s0.808 0.434 1.284 0.408l-0.020-0.355zM10.496 26.403l0.238-0.264c-0.299-0.27-0.617-0.557-0.928-0.753l-0.38 0.601c0.249 0.157 0.519 0.398 0.831 0.679l0.238-0.264zM9.616 25.687l0.19-0.3c-0.709-0.448-1.504-0.789-2.284-1.044l-0.221 0.676c0.74 0.242 1.479 0.561 2.125 0.97l0.19-0.3zM7.412 24.68l0.11-0.338c-1.289-0.422-2.649-0.636-3.987-0.716l-0.021 0.355-0.021 0.355c1.293 0.077 2.59 0.284 3.808 0.682l0.11-0.338zM3.514 23.981l0.021-0.355c-0.212-0.013-0.429-0.011-0.632-0.010l0.001 0.355 0.001 0.355c0.209-0.001 0.402-0.002 0.587 0.009l0.021-0.355zM2.905 23.971l-0.001-0.355c-0.39 0.001-0.735 0.001-1.050-0.068l-0.153 0.694c0.405 0.089 0.832 0.086 1.206 0.085l-0.001-0.355zM1.777 23.894l0.077-0.347c-0.22-0.049-0.365-0.155-0.593-0.357l-0.471 0.532c0.244 0.216 0.503 0.428 0.91 0.518l0.077-0.347zM1.026 23.457l0.328-0.138c-0.147-0.349-0.199-0.802-0.22-1.239l-0.71 0.034c0.022 0.448 0.076 1.009 0.275 1.48l0.328-0.138zM0.778 22.097l0.355-0.017c-0.037-0.778-0.028-1.568-0.018-2.366l-0.711-0.009c-0.010 0.795-0.020 1.606 0.019 2.409l0.355-0.017zM0.76 19.709l0.355 0.005c0.004-0.354 0.008-0.709 0.009-1.063l-0.711-0c-0 0.349-0.004 0.701-0.009 1.054l0.355 0.004zM0.768 18.651l0.355 0 0.006-6.729-0.711-0.001-0.006 6.729 0.355 0zM0.774 11.922l0.355-0-0.006-5.092-0.711 0.001 0.006 5.092 0.355-0zM0.768 6.83l0.355-0c-0-0.23-0.010-0.48-0.020-0.727l-0.71 0.028c0.010 0.252 0.019 0.486 0.020 0.699l0.355-0zM0.749 6.117l0.355-0.014c-0.027-0.692-0.050-1.372 0.082-1.888l-0.689-0.176c-0.163 0.637-0.129 1.431-0.103 2.092l0.355-0.014zM0.841 4.127l0.344 0.088c0.046-0.178 0.126-0.255 0.377-0.415l-0.382-0.599c-0.28 0.179-0.567 0.383-0.683 0.838l0.344 0.088zM1.371 3.501l0.023 0.355c2.86-0.185 5.978 0.41 8.476 1.8l0.346-0.621c-2.632-1.464-5.89-2.081-8.868-1.888l0.023 0.355zM10.043 5.344l-0.173 0.311c0.827 0.46 1.574 1.025 2.353 1.614l0.429-0.567c-0.772-0.584-1.559-1.18-2.436-1.668l-0.173 0.311zM12.437 6.985l0.212 0.285c0.436-0.325 0.871-0.646 1.313-0.949l-0.401-0.587c-0.456 0.311-0.901 0.641-1.337 0.966l0.212 0.285zM13.763 6.028l0.201 0.293c2.351-1.606 5.157-2.404 8.010-2.475l-0.009-0.355-0.009-0.355c-2.971 0.074-5.915 0.905-8.393 2.599l0.201 0.293zM21.965 3.491l0.009 0.355c0.125-0.003 0.258-0.011 0.384-0.017l-0.038-0.71c-0.131 0.007-0.251 0.014-0.363 0.017l0.009 0.355zM22.001 5.759l-0.003-0.355c-0.319 0.003-0.743-0.020-1.122 0.030l0.047 0.352 0.047 0.352c0.321-0.043 0.646-0.021 1.034-0.024l-0.003-0.355zM20.923 5.786l-0.032-0.354c-1.224 0.111-2.625 0.39-3.931 0.888-1.304 0.497-2.538 1.221-3.404 2.237l0.541 0.461c0.761-0.893 1.877-1.561 3.116-2.034 1.236-0.471 2.571-0.739 3.742-0.844l-0.032-0.354zM13.827 8.788l-0.271-0.229c-0.075 0.089-0.145 0.179-0.212 0.267l0.568 0.427c0.062-0.082 0.123-0.161 0.186-0.236l-0.271-0.229zM13.628 9.039l-0.355-0-0.004 14.983 0.711 0 0.004-14.983-0.355-0zM13.624 24.022l0.209 0.287c0.274-0.199 0.527-0.391 0.793-0.576l-0.406-0.584c-0.274 0.19-0.548 0.398-0.806 0.585l0.209 0.288zM14.423 23.441l0.182 0.305c2.154-1.287 4.866-1.516 7.433-1.7l-0.025-0.355-0.026-0.354c-2.536 0.182-5.424 0.412-7.746 1.799l0.182 0.305zM22.013 21.691h0.355c0-5.301 0.071-10.628-0.011-15.937l-0.711 0.011c0.082 5.303 0.012 10.613 0.011 15.926h0.355zM2.91 5.762l-0.355-0.009c-0.055 2.223-0.043 4.455-0.031 6.675l0.711-0.004c-0.012-2.223-0.024-4.443 0.031-6.654l-0.355-0.009zM2.879 12.427l-0.355 0.002c0.005 0.911 0.010 1.82 0.010 2.728l0.711-0c-0-0.91-0.005-1.822-0.010-2.732l-0.355 0.002zM2.889 15.157h-0.355c0 0.665-0.008 1.336-0.017 2.011l0.711 0.009c0.009-0.674 0.017-1.349 0.017-2.020l-0.355 0zM2.872 17.172h-0.355v0.006h0.711v-0.006h-0.355zM2.872 17.178l-0.355-0.005c-0.019 1.49-0.038 3.003 0.037 4.491l0.71-0.036c-0.074-1.462-0.055-2.952-0.037-4.446l-0.355-0.005zM2.909 21.647l-0.030 0.354c2.961 0.255 5.819 0.545 8.182 2.279l0.421-0.573c-2.548-1.869-5.608-2.161-8.542-2.414l-0.030 0.354zM11.271 23.994l0.355-0.001c-0.014-4.97 0.013-9.94 0.082-14.91l-0.711-0.010c-0.070 4.974-0.097 9.948-0.082 14.922l0.355-0.001zM11.354 9.077l0.258-0.244c-2.003-2.114-5.116-3.35-7.984-3.43l-0.020 0.711c2.703 0.076 5.63 1.247 7.488 3.209l0.258-0.244zM3.618 5.758l0.008-0.355c-0.242-0.005-0.485-0.003-0.727 0.004l0.023 0.71c0.229-0.008 0.459-0.009 0.688-0.004l0.008-0.355z"></path>
<path fill="#010101" style="fill: var(--color2, #010101)" d="M33.252 5.109c2.847-0.049 7.642-0.133 9.222 0.472 1.206 0.462 2.232 1.371 2.757 2.56 0.518 1.172 0.554 2.722 0.085 3.915-0.501 1.274-1.421 1.812-2.611 2.325 0.092 0.033 0.185 0.066 0.278 0.098 0.255 0.088 0.512 0.177 0.751 0.295 1.098 0.552 1.938 1.511 2.338 2.673 0.483 1.425 0.298 3.022-0.357 4.357-0.488 0.841-1.172 1.491-2.018 1.965-0.745 0.417-1.482 0.583-2.322 0.695-1.278 0.17-8.692 0.282-9.624-0.035-0.126-0.043-0.251-0.090-0.308-0.214-0.137-0.297-0.156-0.753-0.17-1.104l-0.004-0.097c-0.089-1.993-0.060-4.013-0.031-6.024 0.013-0.895 0.025-1.788 0.027-2.676 0.002-0.856-0.009-1.718-0.020-2.581-0.022-1.683-0.043-3.372 0.034-5.037 0.017-0.361 0.047-0.763 0.177-1.102 0.099-0.259 0.226-0.348 0.47-0.463 0.357-0.002 0.809-0.011 1.325-0.020zM40.37 15.928c-1.038-0.247-4.314-0.076-5.561-0.075l0.001 5.688c1.464 0.003 4.651 0.188 5.905-0.134 0.463-0.119 0.831-0.305 1.183-0.628 0.564-0.665 0.857-1.336 0.773-2.229-0.075-0.793-0.414-1.468-1.031-1.977-0.369-0.308-0.803-0.529-1.27-0.645zM35.843 7.994c-0.395 0.013-0.75 0.024-1.036 0.024l0.003 5.063c0.332 0.001 0.737 0.011 1.179 0.023 1.46 0.037 3.323 0.085 4.296-0.163 0.453-0.116 0.828-0.299 1.19-0.594 0.475-0.576 0.734-1.233 0.673-1.99-0.054-0.665-0.371-1.317-0.902-1.729-1-0.776-3.621-0.691-5.403-0.634z"></path>
<path fill="#010101" style="fill: var(--color2, #010101)" d="M62.625 16.433c-0.547-4.109-4.323-6.996-8.432-6.447-4.106 0.549-6.99 4.321-6.443 8.426s4.317 6.992 8.423 6.448c4.109-0.545 6.998-4.319 6.452-8.428zM54.673 13.165c0.834-0.041 1.569-0.027 2.309 0.423 0.83 0.506 1.346 1.37 1.571 2.299 0.319 1.316 0.244 3.129-0.496 4.3-0.53 0.839-1.27 1.21-2.206 1.416-0.898 0.090-1.789 0.006-2.559-0.51-0.811-0.545-1.284-1.433-1.467-2.374-0.261-1.336-0.179-3.073 0.629-4.217 0.554-0.785 1.293-1.172 2.219-1.336z"></path>
<path fill="#010101" style="fill: var(--color2, #010101)" d="M78.727 16.387c-0.567-4.108-4.363-6.974-8.47-6.395-4.090 0.577-6.942 4.354-6.377 8.446 0.565 4.091 4.335 6.954 8.428 6.401 4.11-0.556 6.986-4.343 6.419-8.451zM70.717 13.166c0.811-0.067 1.596-0.041 2.325 0.367 0.866 0.485 1.395 1.337 1.641 2.277 0.354 1.351 0.284 3.093-0.456 4.311-0.524 0.863-1.271 1.265-2.226 1.479-0.894 0.116-1.776 0.016-2.545-0.489-0.821-0.54-1.297-1.418-1.497-2.361-0.281-1.333-0.19-3.050 0.587-4.208 0.527-0.786 1.262-1.188 2.17-1.375z"></path>
<path fill="#010101" style="fill: var(--color2, #010101)" d="M81.718 4.503c0.056-0.005 0.112-0.009 0.168-0.011 0.557-0.020 1.799-0.128 2.177 0.383 0.161 0.217 0.185 0.672 0.205 0.94 0.085 1.132 0.016 2.316 0.016 3.453l0.001 6.695c0.792-0.941 1.703-1.803 2.538-2.709 0.825-0.894 1.617-1.923 2.531-2.719 0.218-0.19 0.383-0.29 0.664-0.367 0.584-0.159 2.698-0.277 3.143 0.040 0.114 0.081 0.21 0.238 0.202 0.381-0.040 0.637-4.249 4.788-4.983 5.514 1.35 1.962 2.711 3.916 4.085 5.861 0.342 0.496 1.314 1.561 1.189 2.176-0.027 0.134-0.133 0.251-0.251 0.316-0.631 0.348-3.056 0.119-3.813-0.128-0.541-0.544-0.982-1.33-1.417-1.962l-2.634-3.841-1.259 1.094c-0.005 1.007 0.296 3.971-0.351 4.646-0.29 0.303-0.669 0.326-1.063 0.33-0.603 0.006-1.769 0.107-2.209-0.324-0.113-1.16-0.075-2.334-0.076-3.499l-0.002-4.973 0.001-6.813c0-1.211-0.043-2.44 0.013-3.649 0.008-0.163 0.012-0.303 0.109-0.442 0.232-0.335 0.652-0.341 1.019-0.391z"></path>
<path fill="#010101" style="fill: var(--color2, #010101)" d="M107.329 10.035c0.795-0.017 2.377-0.193 3.092 0.103 0.268 0.111 0.39 0.385 0.51 0.635 0.509 1.061 0.842 2.284 1.252 3.392 0.713 1.928 1.481 3.835 2.204 5.759 0.42-1.086 3.322-9.174 3.797-9.577 0.233-0.197 0.675-0.24 0.966-0.248 0.612-0.018 1.755-0.153 2.219 0.274 0.117 0.276 0.102 0.426 0.034 0.722-0.238 1.032-0.743 2.104-1.113 3.098l-2.381 6.398-1.609 4.362c-0.323 0.88-0.608 1.822-1.028 2.659-0.234 0.466-0.518 0.904-0.875 1.285-0.855 0.916-1.974 1.31-3.206 1.353-0.528 0.018-1.434 0.116-1.841-0.261-0.26-0.526-0.282-1.753-0.114-2.32 0.163-0.552 1.373-0.447 1.86-0.721 0.785-0.441 0.999-1.311 1.201-2.119-0.63-1.906-5.376-13.56-5.33-14.219 0.020-0.286 0.155-0.409 0.362-0.574z"></path>
<path fill="#010101" style="fill: var(--color2, #010101)" d="M99.532 9.979c0.398-0.061 0.835-0.044 1.24-0.040 1.609 0.016 3.409 0.355 4.567 1.565 0.532 0.556 0.921 1.397 0.862 2.181-0.010 0.134-0.047 0.325-0.161 0.406-0.578 0.408-2.155 0.328-2.842 0.236-0.609-0.082-0.562-0.489-0.938-0.935-0.414-0.491-1.019-0.732-1.649-0.777-0.701-0.051-1.587 0.177-2.109 0.669-0.23 0.217-0.473 0.777-0.436 1.091 0.162 1.366 4.012 1.542 5.12 1.821 0.94 0.237 1.907 0.588 2.658 1.221 0.712 0.6 1.034 1.417 1.107 2.332 0.089 1.127-0.24 2.206-0.987 3.059-1.299 1.482-3.193 1.918-5.076 2.056-1.448 0.049-3.006-0.149-4.308-0.818-0.945-0.486-1.798-1.244-2.113-2.29-0.129-0.427-0.215-0.928 0.012-1.333 0.658-0.516 2.457-0.314 3.256-0.285 0.27 0.41 0.434 0.892 0.803 1.231 0.621 0.572 1.536 0.745 2.356 0.704 0.67-0.033 1.384-0.224 1.833-0.756 0.248-0.294 0.392-0.67 0.355-1.058-0.148-1.55-3.966-1.544-5.147-1.817-0.853-0.196-1.723-0.542-2.414-1.090-0.728-0.578-1.193-1.355-1.281-2.287-0.098-1.137 0.252-2.266 0.977-3.148 1.094-1.326 2.667-1.776 4.316-1.937z"></path>
</symbol>
<symbol id="icon-up" viewBox="0 0 48 32">
<path d="M1.172 25.172l5.656 5.656 17.172-17.172 17.172 17.172 5.656-5.656-22.828-22.828-22.828 22.828z"></path>
</symbol>
<symbol id="icon-down" viewBox="0 0 48 32">
<path d="M41.172 1.172l-17.172 17.172-17.172-17.172-5.656 5.656 22.828 22.828 22.828-22.828-5.656-5.656z"></path>
</symbol>
<symbol id="icon-left" viewBox="0 0 21 32">
<path d="M16.781 0.781l-15.219 15.219 15.219 15.219 3.771-3.771-11.448-11.448 11.448-11.448-3.771-3.771z"></path>
</symbol>
<symbol id="icon-right" viewBox="0 0 21 32">
<path d="M4.552 31.866l15.219-15.219-15.219-15.219-3.771 3.771 11.448 11.448-11.448 11.448 3.771 3.771z"></path>
</symbol>
<symbol id="icon-arrow-up" viewBox="0 0 32 32">
<path d="M13.714 10.089v21.911h4.571v-21.911l9.813 9.813 3.232-3.232-15.33-15.33-15.33 15.33 3.232 3.232 9.813-9.813z"></path>
</symbol>
</defs>
</svg>
